<svg width="95" height="64" viewBox="0 0 95 64" fill="none" xmlns="http://www.w3.org/2000/svg">
<path d="M39.9059 0.126709C38.2497 0.126709 36.869 1.36003 36.869 2.83935V8.25393H35.567C33.7906 8.25393 32.3165 9.58134 32.3165 11.168C32.3165 13.807 32.3165 19.1098 32.3165 19.1098H26.2428C25.3996 19.1068 24.7151 19.7182 24.7184 20.4714C24.7245 21.105 25.2205 21.6504 25.9136 21.7853C25.3804 22.3537 24.9353 22.9966 24.6057 23.7032L20.0651 33.4252C19.4229 34.8021 18.1113 35.8355 16.5003 36.2279L5.99848 38.7921C3.61494 39.3727 1.94131 41.322 1.94129 43.5287V51.6585C1.1024 51.6612 0.422543 52.2709 0.425793 53.0202V55.7327C0.425778 57.9639 2.48034 59.799 4.97824 59.799H13.8014C15.3787 62.23 18.32 63.8732 21.6785 63.8732C25.037 63.8732 27.9869 62.23 29.5675 59.799H62.3926C63.9699 62.23 66.9141 63.8732 70.2727 63.8732C73.6312 63.8732 76.5781 62.23 78.1587 59.799H90.0099C92.5078 59.799 94.5743 57.9639 94.5742 55.7327V53.0202C94.5772 52.267 93.8931 51.6556 93.0498 51.6585H91.5343V43.5287C91.5343 41.3442 90.0721 39.3534 87.8241 38.4929L81.8184 36.1987C81.006 35.8874 80.3641 35.3063 80.0241 34.5775L74.9467 23.7032C74.6171 22.9966 74.1721 22.3537 73.6388 21.7853C74.3319 21.6504 74.8281 21.105 74.834 20.4714C74.8371 19.7181 74.1528 19.1068 73.3094 19.1098H67.2266C67.2281 16.4626 67.2312 13.8153 67.233 11.168C67.2342 9.58134 65.7589 8.25393 63.9825 8.25393H62.6835V2.83935C62.6835 1.36003 61.3027 0.126709 59.6466 0.126709H39.9059ZM39.9059 2.83935H59.6461V8.25393H39.9059V2.83935ZM47.4953 4.19044C46.6602 4.19195 45.9831 4.79548 45.9798 5.54142C45.9768 6.29151 46.6555 6.90162 47.4953 6.90308H52.0567C52.8953 6.90007 53.5725 6.29049 53.5692 5.54142C53.5662 4.7965 52.8907 4.19338 52.0567 4.19044H47.4953ZM35.567 10.9693H41.4185V13.6819C40.5798 13.6849 39.9027 14.2944 39.9059 15.0435C39.909 15.7884 40.5845 16.3915 41.4185 16.3945V19.1098H35.567C35.4205 19.1098 35.3534 19.0499 35.3534 18.9191V11.168C35.3534 11.0372 35.4205 10.9692 35.567 10.9692V10.9693ZM44.4554 10.9693H55.0936V13.6819C54.2504 13.6789 53.5659 14.2903 53.5692 15.0435C53.5723 15.7926 54.255 16.3974 55.0936 16.3945V19.1098H44.4554V16.3945C45.2941 16.3974 45.9766 15.7926 45.9798 15.0435C45.9829 14.2903 45.2987 13.679 44.4554 13.6819V10.9693ZM58.1306 10.9693H59.6461H63.9821C64.1285 10.9693 64.1956 11.0373 64.1956 11.1681V18.9192C64.1956 19.05 64.1284 19.1098 63.9821 19.1098H58.1306V16.3946C58.9658 16.3931 59.6428 15.7896 59.6461 15.0436C59.6491 14.2935 58.9704 13.6834 58.1306 13.6819V10.9693ZM32.3165 21.8223H67.2326C69.3824 21.8223 71.317 22.9717 72.1439 24.7443L77.2213 35.6186C77.8649 36.9982 79.0791 38.1027 80.6171 38.6915L82.7465 39.5047C82.5483 40.1481 82.4444 40.8141 82.444 41.4862C82.444 43.351 82.8336 45.1848 84.0693 46.6307C85.056 47.7853 86.5878 48.5731 88.4971 48.8427V51.6585H78.1525C76.5706 49.2321 73.6272 47.5923 70.2725 47.5923C66.9178 47.5923 63.9769 49.2321 62.3984 51.6585H53.5692V38.1008H68.757C71.2375 38.1008 73.0148 35.8017 72.1439 33.7272L69.7208 27.9602C68.8589 25.9073 66.6503 24.535 64.1956 24.535H35.3535C32.8988 24.535 30.6901 25.9073 29.8282 27.9602L27.4082 33.7272C26.5372 35.8017 28.3116 38.1008 30.7921 38.1008H50.5323V51.6585H29.5613C27.9794 49.2321 25.033 47.5923 21.6783 47.5923C18.3236 47.5923 15.3857 49.2321 13.8071 51.6585H4.97803V48.9114C5.23121 48.9318 5.48605 48.9481 5.74024 48.9481C10.3347 48.9481 14.0919 45.5922 14.0919 41.4884C14.0916 40.879 14.0059 40.2741 13.8427 39.687L17.2978 38.8447C19.8107 38.2326 21.8658 36.616 22.8676 34.4684L27.4082 24.7465C28.235 22.974 30.1667 21.8246 32.3165 21.8246V21.8223ZM35.3535 27.2476H50.5323V35.3882H30.7921C30.3338 35.3882 30.0825 35.0617 30.2434 34.6782L32.6635 28.9112C33.0844 27.9087 34.1547 27.2476 35.3535 27.2476H35.3535ZM53.5692 27.2476H64.1956C65.3944 27.2476 66.4646 27.9087 66.8855 28.9112L69.3086 34.6782C69.4693 35.0617 69.2155 35.3882 68.757 35.3882H53.5692L53.5692 27.2476ZM45.9027 28.6039C45.5269 28.6202 45.1718 28.7629 44.9062 29.0013L41.8663 31.7139C41.2695 32.2441 41.2695 33.1069 41.8663 33.6371C42.46 34.1702 43.4258 34.1702 44.0194 33.6371L47.0564 30.9219C47.6512 30.3919 47.6512 29.5312 47.0564 29.0013C46.7523 28.7286 46.333 28.584 45.9027 28.6039ZM38.3163 28.6067C37.9398 28.623 37.5836 28.7635 37.3168 29.0015L35.7924 30.363C35.2035 30.8921 35.2035 31.7466 35.7924 32.2757C36.386 32.8088 37.3519 32.8088 37.9456 32.2757L39.4581 30.922C40.0529 30.392 40.0529 29.5314 39.4581 29.0015C39.1564 28.733 38.742 28.5894 38.3163 28.6067ZM10.9096 40.4028C11.0034 40.7561 11.0517 41.1199 11.0519 41.4863C11.0519 44.1241 8.69334 46.2308 5.74017 46.2308C5.48485 46.2304 5.22951 46.2144 4.97795 46.1846V43.5303C4.97797 42.534 5.71681 41.6706 6.793 41.4085L10.9096 40.4028ZM86.6257 40.9857C87.7646 41.4219 88.4971 42.422 88.4971 43.5287V46.1009C87.5315 45.9078 86.9453 45.5103 86.4923 44.9804C85.8401 44.2172 85.4809 42.9922 85.4809 41.4863C85.4811 41.1827 85.5142 40.8807 85.5789 40.5856L86.6257 40.9857ZM44.4554 40.8162C43.6214 40.819 42.9462 41.4221 42.9429 42.167C42.9398 42.9161 43.6168 43.5257 44.4554 43.5287H45.9798C46.8196 43.5272 47.4986 42.9171 47.4953 42.167C47.4923 41.421 46.815 40.8175 45.9798 40.816L44.4554 40.8162ZM58.1306 40.8162C57.292 40.8132 56.6095 41.418 56.6062 42.167C56.6031 42.9202 57.2873 43.5316 58.1306 43.5287H59.6461C60.4894 43.5317 61.1738 42.9202 61.1705 42.167C61.1675 41.418 60.4847 40.8131 59.6461 40.816L58.1306 40.8162ZM21.5211 50.3077C21.5735 50.3065 21.6256 50.3077 21.6783 50.3077C25.0507 50.3077 27.7552 52.7206 27.7552 55.7328C27.7552 58.7451 25.0507 61.1607 21.6783 61.1607C18.3059 61.1607 15.6163 58.7451 15.6163 55.7328C15.6163 52.7677 18.2228 50.3815 21.5211 50.3077ZM70.1153 50.3077C70.1675 50.3065 70.2197 50.3077 70.2725 50.3077C73.6449 50.3077 76.3464 52.7206 76.3464 55.7328C76.3464 58.7451 73.6449 61.1607 70.2725 61.1607C66.9001 61.1607 64.1956 58.7451 64.1956 55.7328C64.1956 52.7677 66.8167 50.3815 70.1153 50.3077H70.1153ZM3.46549 54.3712H12.7068C12.6226 54.8146 12.5764 55.2687 12.5764 55.7327C12.5764 56.193 12.6239 56.6436 12.7068 57.0837H4.97803C4.12141 57.0837 3.46548 56.4978 3.46549 55.7327V54.3712ZM21.6842 54.3712C20.8456 54.3741 20.1684 54.9836 20.1717 55.7327C20.1747 56.4776 20.8502 57.0808 21.6842 57.0837C22.5182 57.0809 23.1935 56.4776 23.1968 55.7327C23.1998 54.9836 22.5229 54.3741 21.6842 54.3712ZM30.6646 54.3712H61.298C61.2138 54.8146 61.1704 55.2687 61.1704 55.7327C61.1704 56.193 61.2152 56.6436 61.298 57.0837H30.6646C30.7478 56.6438 30.7922 56.1931 30.7922 55.7327C30.7922 55.2687 30.7491 54.8144 30.6646 54.3712ZM79.2558 54.3712H91.5341V55.7327C91.5341 56.4978 90.8663 57.0837 90.0097 57.0837H79.2558C79.339 56.6438 79.3834 56.1931 79.3834 55.7327C79.3834 55.2687 79.3405 54.8144 79.2558 54.3712ZM70.2754 54.3739C69.4368 54.3769 68.7596 54.9864 68.7629 55.7354C68.7659 56.4804 69.4414 57.0836 70.2754 57.0864C71.1094 57.0836 71.7847 56.4804 71.788 55.7354C71.791 54.9864 71.1141 54.3766 70.2754 54.3736V54.3739Z" fill="#F2BF18"/>
</svg>
