<?xml version="1.0" encoding="utf-8"?>
<!-- Generator: Adobe Illustrator 21.0.0, SVG Export Plug-In . SVG Version: 6.00 Build 0)  -->
<svg version="1.1" id="Layer_1" xmlns="http://www.w3.org/2000/svg" xmlns:xlink="http://www.w3.org/1999/xlink" x="0px" y="0px"
	 viewBox="0 0 100 100" style="enable-background:new 0 0 100 100;" xml:space="preserve">
<style type="text/css">
	.st0{fill:none;stroke:#000000;stroke-width:5;stroke-miterlimit:10;}
</style>
<path class="st0" d="M8.5,87.7"/>
<g>
	<path d="M50.1,65.7c16,0,29-13,29-29s-13-29-29-29s-29,13-29,29S34.1,65.7,50.1,65.7z M50.1,12.7c13.2,0,24,10.8,24,24
		s-10.8,24-24,24s-24-10.8-24-24S36.9,12.7,50.1,12.7z"/>
	<path d="M50.1,67.7c-17.9,0-34.9,6.7-48,19c-1,1-1.1,2.6-0.1,3.6l0,0c0.9,0.9,2.5,1,3.4,0.1c12.2-11.4,28-17.7,44.7-17.7
		c16.7,0,32.4,6.3,44.7,17.7c1,0.9,2.5,0.9,3.4-0.1l0,0c1-1,1-2.6-0.1-3.6C85,74.5,68,67.7,50.1,67.7z"/>
</g>
</svg>
