<?xml version="1.0" ?><svg id="Layer_4" style="enable-background:new 0 0 24 24;" version="1.1" viewBox="0 0 24 24" xml:space="preserve" xmlns="http://www.w3.org/2000/svg" xmlns:xlink="http://www.w3.org/1999/xlink"><style type="text/css">
	.st0{fill:#020441;}
</style><path class="st0" d="M18.5,7.39c0-0.132-0.053-0.26-0.146-0.354l-3.88-3.88C14.38,3.063,14.253,3.01,14.12,3.01H7.99  c-1.373,0-2.49,1.122-2.49,2.5v5.631c0,0.276,0.224,0.5,0.5,0.5s0.5-0.224,0.5-0.5V5.51c0-0.827,0.669-1.5,1.49-1.5h5.663  c-0.02,0.071-0.033,0.145-0.033,0.221V6.38c0,0.833,0.678,1.51,1.51,1.51h2.149c0.076,0,0.15-0.013,0.221-0.033V11.5h-1.65  c-0.276,0-0.5,0.224-0.5,0.5v1.93c0,0.218,0.032,0.427,0.079,0.632c0.014,0.06,0.034,0.116,0.052,0.175  c0.045,0.149,0.1,0.291,0.167,0.429c0.025,0.051,0.049,0.101,0.077,0.151c0.097,0.172,0.208,0.335,0.337,0.482  c0.003,0.003,0.005,0.007,0.008,0.01c0.147,0.166,0.314,0.311,0.495,0.438c0.002,0.001,0.003,0.003,0.005,0.004  c-0.01,0.007-0.018,0.017-0.028,0.025c-0.166,0.118-0.319,0.252-0.455,0.403c-0.026,0.029-0.047,0.063-0.072,0.093  c-0.105,0.126-0.2,0.26-0.282,0.403c-0.032,0.056-0.06,0.114-0.089,0.172c-0.065,0.133-0.117,0.27-0.161,0.413  c-0.018,0.06-0.039,0.118-0.053,0.18c-0.047,0.204-0.079,0.413-0.079,0.631v1.42H7.99c-0.821,0-1.49-0.673-1.49-1.5v-5.631  c0-0.276-0.224-0.5-0.5-0.5s-0.5,0.224-0.5,0.5v5.631c0,1.379,1.117,2.5,2.49,2.5h7.859h4.641c0.276,0,0.5-0.224,0.5-0.5v-1.92  c0-0.754-0.294-1.462-0.827-1.994c-0.123-0.123-0.257-0.23-0.396-0.326c0.737-0.509,1.223-1.359,1.223-2.32V12  c0-0.276-0.224-0.5-0.5-0.5H18.5V7.39z M15.13,6.89c-0.281,0-0.51-0.229-0.51-0.51V4.717l2.173,2.173H15.13z M19.456,17.283  c0.345,0.344,0.534,0.801,0.534,1.287v1.42H16.35v-1.42c0-0.953,0.739-1.749,1.684-1.812c0.016-0.001,0.121-0.006,0.137-0.009  C18.655,16.75,19.112,16.939,19.456,17.283z M19.99,13.93c0,1.004-0.816,1.82-1.82,1.82l-0.137-0.009  c-0.944-0.063-1.684-0.858-1.684-1.812V12.5H18h1.99V13.93z"/></svg>