<?xml version="1.0" encoding="UTF-8" standalone="no"?>
<svg
   sodipodi:docname="22 - Vehicle.svg"
   inkscape:version="1.1.1 (1:1.1+202109281949+c3084ef5ed)"
   id="svg831"
   version="1.1"
   viewBox="0 0 22.577778 22.577778"
   height="64pt"
   width="64pt"
   inkscape:export-filename="/media/taufikramadhan/Data/Tr Design Studio/Project Design/TR Creative Design/Icon Design/Project Hiring/Icon Icons/009 -  Hotel And Holidays/Send/3 - Flat/SVG/21 - Bellboy.png"
   inkscape:export-xdpi="576"
   inkscape:export-ydpi="576"
   xmlns:inkscape="http://www.inkscape.org/namespaces/inkscape"
   xmlns:sodipodi="http://sodipodi.sourceforge.net/DTD/sodipodi-0.dtd"
   xmlns="http://www.w3.org/2000/svg"
   xmlns:svg="http://www.w3.org/2000/svg"
   xmlns:rdf="http://www.w3.org/1999/02/22-rdf-syntax-ns#"
   xmlns:cc="http://creativecommons.org/ns#"
   xmlns:dc="http://purl.org/dc/elements/1.1/">
  <defs
     id="defs825">
    <pattern
       y="0"
       x="0"
       height="6"
       width="6"
       patternUnits="userSpaceOnUse"
       id="EMFhbasepattern" />
    <pattern
       y="0"
       x="0"
       height="6"
       width="6"
       patternUnits="userSpaceOnUse"
       id="EMFhbasepattern-9" />
    <pattern
       y="0"
       x="0"
       height="6"
       width="6"
       patternUnits="userSpaceOnUse"
       id="EMFhbasepattern-0" />
    <pattern
       y="0"
       x="0"
       height="6"
       width="6"
       patternUnits="userSpaceOnUse"
       id="EMFhbasepattern-7" />
    <pattern
       y="0"
       x="0"
       height="6"
       width="6"
       patternUnits="userSpaceOnUse"
       id="EMFhbasepattern-2" />
    <pattern
       y="0"
       x="0"
       height="6"
       width="6"
       patternUnits="userSpaceOnUse"
       id="EMFhbasepattern-98" />
    <pattern
       y="0"
       x="0"
       height="6"
       width="6"
       patternUnits="userSpaceOnUse"
       id="EMFhbasepattern-6" />
    <pattern
       y="0"
       x="0"
       height="6"
       width="6"
       patternUnits="userSpaceOnUse"
       id="EMFhbasepattern-01" />
    <pattern
       y="0"
       x="0"
       height="6"
       width="6"
       patternUnits="userSpaceOnUse"
       id="EMFhbasepattern-07" />
    <pattern
       y="0"
       x="0"
       height="6"
       width="6"
       patternUnits="userSpaceOnUse"
       id="EMFhbasepattern-8" />
    <pattern
       y="0"
       x="0"
       height="6"
       width="6"
       patternUnits="userSpaceOnUse"
       id="EMFhbasepattern-4" />
    <pattern
       y="0"
       x="0"
       height="6"
       width="6"
       patternUnits="userSpaceOnUse"
       id="EMFhbasepattern-40" />
    <pattern
       y="0"
       x="0"
       height="6"
       width="6"
       patternUnits="userSpaceOnUse"
       id="EMFhbasepattern-08" />
    <pattern
       y="0"
       x="0"
       height="6"
       width="6"
       patternUnits="userSpaceOnUse"
       id="EMFhbasepattern-04" />
    <pattern
       y="0"
       x="0"
       height="6"
       width="6"
       patternUnits="userSpaceOnUse"
       id="EMFhbasepattern-014" />
    <pattern
       y="0"
       x="0"
       height="6"
       width="6"
       patternUnits="userSpaceOnUse"
       id="EMFhbasepattern-27" />
    <pattern
       y="0"
       x="0"
       height="6"
       width="6"
       patternUnits="userSpaceOnUse"
       id="EMFhbasepattern-09" />
    <pattern
       y="0"
       x="0"
       height="6"
       width="6"
       patternUnits="userSpaceOnUse"
       id="EMFhbasepattern-5" />
    <pattern
       y="0"
       x="0"
       height="6"
       width="6"
       patternUnits="userSpaceOnUse"
       id="EMFhbasepattern-018" />
  </defs>
  <sodipodi:namedview
     inkscape:document-rotation="0"
     inkscape:snap-global="true"
     inkscape:snap-nodes="false"
     inkscape:bbox-nodes="true"
     inkscape:snap-bbox="true"
     showguides="false"
     inkscape:snap-midpoints="true"
     inkscape:snap-smooth-nodes="true"
     inkscape:snap-intersection-paths="true"
     inkscape:object-paths="true"
     inkscape:showpageshadow="false"
     inkscape:pagecheckerboard="true"
     inkscape:window-maximized="1"
     inkscape:window-y="31"
     inkscape:window-x="0"
     inkscape:window-height="705"
     inkscape:window-width="1366"
     units="pt"
     showgrid="false"
     inkscape:current-layer="layer1"
     inkscape:document-units="pt"
     inkscape:cy="43.228498"
     inkscape:cx="39.063252"
     inkscape:zoom="4.4415145"
     inkscape:pageshadow="2"
     inkscape:pageopacity="0.0"
     borderopacity="1.0"
     bordercolor="#666666"
     pagecolor="#ffffff"
     id="base">
    <inkscape:grid
       id="grid1378"
       type="xygrid" />
    <sodipodi:guide
       inkscape:locked="false"
       id="guide1380"
       orientation="78.000048,0"
       position="0.97013831,21.607643" />
    <sodipodi:guide
       inkscape:locked="false"
       id="guide1382"
       orientation="0,78.000005"
       position="0.97013831,0.97013129" />
    <sodipodi:guide
       inkscape:locked="false"
       id="guide1384"
       orientation="-78.000048,0"
       position="21.607639,0.97013129" />
    <sodipodi:guide
       inkscape:locked="false"
       id="guide1386"
       orientation="0,-78.000005"
       position="21.607639,21.607643" />
  </sodipodi:namedview>
  <metadata
     id="metadata828">
    <rdf:RDF>
      <cc:Work
         rdf:about="">
        <dc:format>image/svg+xml</dc:format>
        <dc:type
           rdf:resource="http://purl.org/dc/dcmitype/StillImage" />
      </cc:Work>
    </rdf:RDF>
  </metadata>
  <g
     transform="translate(0,-274.42223)"
     id="layer1"
     inkscape:groupmode="layer"
     inkscape:label="Icon">
    <g
       id="g359525"
       style="display:inline;stroke-width:0.794897"
       transform="matrix(1.2580244,0,0,1.2580244,-114.4828,-77.27192)">
      <path
         style="color:#000000;fill:#30b1ad;stroke-width:0.794897;stroke-linecap:round;stroke-linejoin:round;stroke-miterlimit:1.5;-inkscape-stroke:none"
         d="m 97.330078,286.01953 c -0.586715,0 -1.11809,0.35491 -1.34375,0.89649 l -0.791016,1.89648 c -0.111908,0.26858 -0.340365,0.4703 -0.621093,0.54687 l -1.830078,0.5 c -0.41532,0.11327 -0.707029,0.49336 -0.707032,0.92383 v 1.85157 a 0.26460996,0.26460996 0 0 0 0.265625,0.26367 h 15.080076 a 0.26460996,0.26460996 0 0 0 0.26563,-0.26367 v -1.85157 c 0,-0.42615 -0.2548,-0.81455 -0.64649,-0.98242 l -1.04687,-0.44726 c -0.14157,-0.0607 -0.25325,-0.17423 -0.3125,-0.31641 l -0.88477,-2.12109 c -0.22566,-0.54158 -0.75703,-0.89649 -1.34375,-0.89649 z"
         id="path281388" />
      <path
         style="color:#000000;fill:#d0e2ee;stroke-width:0.794897;stroke-linecap:round;stroke-linejoin:round;stroke-miterlimit:1.5;-inkscape-stroke:none"
         d="m 92.037109,292.36914 a 0.26460996,0.26460996 0 0 0 -0.263672,0.26563 v 0.52929 c -2e-6,0.43524 0.357724,0.79297 0.792969,0.79297 h 2.228516 a 0.26460996,0.26460996 0 0 0 0.263672,-0.26367 v -1.05859 a 0.26460996,0.26460996 0 0 0 -0.263672,-0.26563 z"
         id="path281394" />
      <path
         style="color:#000000;fill:#d0e2ee;stroke-width:0.794897;stroke-linecap:round;stroke-linejoin:round;stroke-miterlimit:1.5;-inkscape-stroke:none"
         d="m 96.160156,292.36914 a 0.26460996,0.26460996 0 0 0 -0.263672,0.26563 v 1.05859 a 0.26460996,0.26460996 0 0 0 0.263672,0.26367 h 7.099614 a 0.26460996,0.26460996 0 0 0 0.26562,-0.26367 v -1.05859 a 0.26460996,0.26460996 0 0 0 -0.26562,-0.26563 z"
         id="path281400" />
      <path
         style="color:#000000;fill:#d0e2ee;stroke-width:0.794897;stroke-linecap:round;stroke-linejoin:round;stroke-miterlimit:1.5;-inkscape-stroke:none"
         d="m 104.62695,292.36914 a 0.26460996,0.26460996 0 0 0 -0.26367,0.26563 v 1.05859 a 0.26460996,0.26460996 0 0 0 0.26367,0.26367 h 2.75586 c 0.43525,0 0.79494,-0.35772 0.79492,-0.79297 v -0.52929 a 0.26460996,0.26460996 0 0 0 -0.26562,-0.26563 z"
         id="path281406" />
      <path
         style="color:#000000;fill:#87d1ee;stroke-width:0.794897;stroke-linecap:round;stroke-linejoin:round;stroke-miterlimit:1.5;-inkscape-stroke:none"
         d="m 97.859375,287.07812 c -0.427711,0 -0.812709,0.2675 -0.962891,0.66797 l -0.421875,1.125 c -0.151755,0.4047 0.157629,0.85352 0.589844,0.85352 h 6.615237 c 0.43221,-10e-6 0.7416,-0.44882 0.58984,-0.85352 l -0.42187,-1.125 c -0.15019,-0.40047 -0.53518,-0.66797 -0.96289,-0.66797 z"
         id="path281412" />
      <path
         id="path341942"
         style="color:#000000;fill:#1f8b95;fill-opacity:1;stroke-width:0.794897;stroke-linecap:round;stroke-linejoin:round;stroke-miterlimit:1.5;-inkscape-stroke:none"
         d="m 97.859146,287.07812 c -0.408863,0 -0.778036,0.24461 -0.941028,0.61598 0.127487,-0.056 0.267155,-0.0868 0.411861,-0.0868 h 5.025531 c 0.42771,0 0.81254,0.2677 0.96273,0.66817 l 0.4222,1.125 c 0.0396,0.10564 0.0472,0.21389 0.03,0.31677 0.38326,-0.0574 0.64008,-0.47026 0.4992,-0.84594 l -0.4222,-1.125 c -0.15019,-0.40047 -0.53502,-0.66817 -0.96273,-0.66817 z" />
      <path
         style="color:#000000;fill:#3a4d5c;stroke-width:0.794897;stroke-linecap:round;stroke-linejoin:round;stroke-miterlimit:1.5;-inkscape-stroke:none"
         d="m 101.0332,292.36914 v -5.29102 h -0.52929 v 5.29102 z"
         id="path47808"
         sodipodi:nodetypes="ccccc" />
      <path
         style="color:#000000;fill:#3a4d5c;stroke-width:0.794897;stroke-linecap:round;stroke-linejoin:round;stroke-miterlimit:1.5;-inkscape-stroke:none"
         d="m 99.445312,290.25391 a 0.2645835,0.2645835 0 0 0 -0.263671,0.26367 0.2645835,0.2645835 0 0 0 0.263671,0.26562 h 0.265625 a 0.2645835,0.2645835 0 0 0 0.263672,-0.26562 0.2645835,0.2645835 0 0 0 -0.263672,-0.26367 z"
         id="path52351" />
      <path
         style="color:#000000;fill:#3a4d5c;stroke-width:0.794897;stroke-linecap:round;stroke-linejoin:round;stroke-miterlimit:1.5;-inkscape-stroke:none"
         d="m 101.82813,290.25391 a 0.2645835,0.2645835 0 0 0 -0.26563,0.26367 0.2645835,0.2645835 0 0 0 0.26563,0.26562 h 0.26367 a 0.2645835,0.2645835 0 0 0 0.26562,-0.26562 0.2645835,0.2645835 0 0 0 -0.26562,-0.26367 z"
         id="path52433" />
      <path
         id="path281430"
         style="color:#000000;fill:#fedc91;stroke-width:3.00434;stroke-linecap:round;stroke-linejoin:round;stroke-miterlimit:1.5;-inkscape-stroke:none"
         d="m 354.83398,35.835938 -4.30468,1.175781 c -1.56972,0.428107 -2.67187,1.865214 -2.67188,3.492187 v 3.357422 l 0.56055,0.273438 a 1.0001006,1.0001006 0 0 0 0.10351,0.04492 c 0.58889,0.209385 1.21338,0.315272 1.8379,0.316406 3.02571,0 5.5,-2.472346 5.5,-5.498047 -3.4e-4,-0.850885 -0.19655,-1.689673 -0.57618,-2.451172 a 1.0001006,1.0001006 0 0 0 -0.0527,-0.0957 z"
         transform="matrix(0.26458334,0,0,0.26458334,0,280.06666)" />
      <path
         id="path281436"
         style="color:#000000;fill:#dc1c4b;fill-opacity:1;stroke-width:3.00434;stroke-linecap:round;stroke-linejoin:round;stroke-miterlimit:1.5;-inkscape-stroke:none"
         d="m 401.80273,35.673828 -0.35351,0.873047 c -0.37977,0.761613 -0.5758,1.600438 -0.57617,2.451172 0,1.374954 0.25654,2.726953 1.07031,3.792969 0.81377,1.066053 2.18823,1.705153 3.91211,1.705078 h 1.00391 v -3.992188 c 0,-1.610645 -0.96296,-3.078421 -2.44336,-3.71289 z"
         transform="matrix(0.26458334,0,0,0.26458334,0,280.06666)" />
      <path
         style="color:#000000;fill:#2bb3cd;stroke-width:0.794897;stroke-linecap:round;stroke-linejoin:round;stroke-miterlimit:1.5;-inkscape-stroke:none"
         d="m 98.201172,287.94922 -0.265625,0.26562 a 0.2645835,0.2645835 0 0 0 0,0.37305 0.2645835,0.2645835 0 0 0 0.375,0 l 0.263672,-0.26367 a 0.2645835,0.2645835 0 0 0 0,-0.375 0.2645835,0.2645835 0 0 0 -0.373047,0 z"
         id="path55402" />
      <path
         style="color:#000000;fill:#2bb3cd;stroke-width:0.794897;stroke-linecap:round;stroke-linejoin:round;stroke-miterlimit:1.5;-inkscape-stroke:none"
         d="m 99.523437,287.94922 -0.529296,0.5293 a 0.2645835,0.2645835 0 0 0 0,0.375 0.2645835,0.2645835 0 0 0 0.375,0 l 0.529296,-0.5293 a 0.2645835,0.2645835 0 0 0 0,-0.375 0.2645835,0.2645835 0 0 0 -0.375,0 z"
         id="path55484" />
      <path
         style="color:#000000;fill:#8fc23f;stroke-width:0.794897;stroke-linecap:round;stroke-linejoin:round;stroke-miterlimit:1.5;-inkscape-stroke:none"
         d="m 98.652344,282.31641 c -0.288583,0 -0.529297,0.24071 -0.529297,0.52929 v 1.05664 c 0,0.28859 0.240714,0.5293 0.529297,0.5293 h 3.439456 c 0.28858,0 0.52929,-0.24071 0.52929,-0.5293 v -1.05664 c 0,-0.28858 -0.24071,-0.52929 -0.52929,-0.52929 z"
         id="path281450" />
      <path
         style="color:#000000;fill:#9a605c;stroke-width:0.794897;stroke-linecap:round;stroke-linejoin:round;stroke-miterlimit:1.5;-inkscape-stroke:none"
         d="m 97.896484,283.90234 c -0.309523,0 -0.566406,0.25884 -0.566406,0.56836 v 1.51172 c 0,0.30953 0.256883,0.56641 0.566406,0.56641 h 4.951176 c 0.30952,0 0.5664,-0.25688 0.5664,-0.56641 v -1.51172 c 0,-0.30952 -0.25688,-0.56836 -0.5664,-0.56836 z"
         id="path281456" />
      <path
         style="color:#000000;fill:#3a4d5c;stroke-width:0.794897;stroke-linecap:round;stroke-linejoin:round;stroke-miterlimit:1.5;-inkscape-stroke:none"
         d="m 99.974609,283.10937 a 0.26458299,0.26458299 0 0 0 -0.263672,0.26368 0.26458299,0.26458299 0 0 0 0.263672,0.26562 h 0.794921 a 0.26458299,0.26458299 0 0 0 0.26367,-0.26562 0.26458299,0.26458299 0 0 0 -0.26367,-0.26368 z"
         id="path59645" />
      <path
         id="path356775"
         style="color:#000000;fill:#7ca63c;fill-opacity:1;stroke-width:0.794897;stroke-linecap:round;stroke-linejoin:round;stroke-miterlimit:1.5;-inkscape-stroke:none"
         d="m 98.652214,282.31665 c -0.288581,0 -0.52917,0.24059 -0.529167,0.52917 h 3.439583 c 0.28858,0 0.52917,0.24059 0.52917,0.52917 v 1.05678 c 0.28858,0 0.52916,-0.24109 0.52916,-0.52969 v -1.05626 c 0,-0.28858 -0.24058,-0.52917 -0.52916,-0.52917 z" />
      <path
         id="path351910"
         style="color:#000000;fill:#66342d;fill-opacity:1;stroke-width:0.794897;stroke-linecap:round;stroke-linejoin:round;stroke-miterlimit:1.5;-inkscape-stroke:none"
         d="m 97.896352,283.90208 c -0.296863,0 -0.544997,0.23817 -0.564822,0.53072 0.0118,-7.7e-4 0.02371,-10e-4 0.03566,-10e-4 h 4.95111 c 0.30952,0 0.56638,0.2584 0.56638,0.56792 v 1.51206 c 0,0.012 -2.7e-4,0.0239 -0.001,0.0356 0.29312,-0.019 0.5302,-0.26742 0.5302,-0.56482 v -1.51205 c 0,-0.30952 -0.25685,-0.56844 -0.56637,-0.56844 z" />
      <path
         style="color:#000000;fill:#f8c09d;stroke-width:0.794897;stroke-linecap:round;stroke-linejoin:round;stroke-miterlimit:1.5;-inkscape-stroke:none"
         d="m 99.445312,286.54883 v -2.64649 h -0.529296 v 2.64649 z"
         id="path58724"
         sodipodi:nodetypes="ccccc" />
      <path
         style="color:#000000;fill:#f8c09d;stroke-width:0.794897;stroke-linecap:round;stroke-linejoin:round;stroke-miterlimit:1.5;-inkscape-stroke:none"
         d="m 101.82813,286.54883 v -2.64649 h -0.5293 v 2.64649 z"
         id="path58808"
         sodipodi:nodetypes="ccccc" />
      <path
         id="path292890"
         style="color:#000000;fill:#aabfd0;fill-opacity:1;stroke-width:0.794897;stroke-linecap:round;stroke-linejoin:round;stroke-miterlimit:1.5;-inkscape-stroke:none"
         d="m 92.037278,292.36927 c -0.146322,3e-4 -0.264624,0.1193 -0.264065,0.26562 v 0.26355 h 1.662918 c 0.146318,3e-4 0.264618,0.11929 0.264065,0.26561 v 0.79324 h 0.794268 c 0.145717,-3e-4 0.263768,-0.11835 0.264065,-0.26407 v -1.05833 c 5.59e-4,-0.14632 -0.117742,-0.26532 -0.264065,-0.26562 z"
         sodipodi:nodetypes="ccccccccccc" />
      <path
         id="path314908"
         style="color:#000000;fill:#aabfd0;fill-opacity:1;stroke-width:3.00434;stroke-linecap:round;stroke-linejoin:round;stroke-miterlimit:1.5;-inkscape-stroke:none"
         d="m 353.93555,46.498047 c -0.40167,0.921678 -0.625,1.937962 -0.625,3.003906 0,1.063778 0.22293,2.077869 0.62304,2.998047 h 4.34571 a 1.0001006,1.0001006 0 0 0 0.99804,-0.998047 v -4 a 1.0001006,1.0001006 0 0 0 -0.99804,-1.003906 z"
         transform="matrix(0.26458334,0,0,0.26458334,0,280.06666)" />
      <path
         id="path312245"
         style="color:#000000;fill:#aabfd0;fill-opacity:1;stroke-width:0.794897;stroke-linecap:round;stroke-linejoin:round;stroke-miterlimit:1.5;-inkscape-stroke:none"
         d="m 96.160024,292.36927 a 0.26460996,0.26460996 0 0 0 -0.263549,0.26562 v 0.26355 h 6.834205 a 0.26460996,0.26460996 0 0 1 0.26562,0.26561 v 0.79324 h 0.26355 a 0.26460996,0.26460996 0 0 0 0.26562,-0.26407 v -1.05833 a 0.26460996,0.26460996 0 0 0 -0.26562,-0.26562 z" />
      <path
         id="path314906"
         style="color:#000000;fill:#aabfd0;fill-opacity:1;stroke-width:3.00434;stroke-linecap:round;stroke-linejoin:round;stroke-miterlimit:1.5;-inkscape-stroke:none"
         d="m 363.43945,46.498047 a 1.0001006,1.0001006 0 0 0 -0.99609,1.003906 v 4 A 1.0001006,1.0001006 0 0 0 363.43945,52.5 h 4.34375 c 0.40114,-0.920296 0.625,-1.934098 0.625,-2.998047 0,-1.066104 -0.22426,-2.082118 -0.62695,-3.003906 z"
         transform="matrix(0.26458334,0,0,0.26458334,0,280.06666)" />
      <path
         style="color:#000000;fill:#3a4d5c;stroke-width:0.794897;stroke-linecap:round;stroke-linejoin:round;stroke-miterlimit:1.5;-inkscape-stroke:none"
         d="m 95.476562,291.57617 c -0.873597,0 -1.585937,0.7143 -1.585937,1.58789 0,0.8736 0.71234,1.58789 1.585937,1.58789 0.873598,0 1.587891,-0.71429 1.587891,-1.58789 0,-0.87359 -0.714293,-1.58789 -1.587891,-1.58789 z"
         id="path281474" />
      <path
         id="path320505"
         style="color:#000000;fill:#aabfd0;fill-opacity:1;stroke-width:3.00434;stroke-linecap:round;stroke-linejoin:round;stroke-miterlimit:1.5;-inkscape-stroke:none"
         d="m 395.44141,46.498047 a 1.0001006,1.0001006 0 0 0 -0.99805,1.003906 v 4 A 1.0001006,1.0001006 0 0 0 395.44141,52.5 h 4.34375 c 0.40113,-0.920296 0.625,-1.934098 0.625,-2.998047 0,-1.066104 -0.22427,-2.082118 -0.62696,-3.003906 z"
         transform="matrix(0.26458334,0,0,0.26458334,0,280.06666)" />
      <path
         id="path321719"
         style="color:#000000;fill:#aabfd0;fill-opacity:1;stroke-width:3.00434;stroke-linecap:round;stroke-linejoin:round;stroke-miterlimit:1.5;-inkscape-stroke:none"
         d="m 385.9375,46.498047 c -0.40178,0.921788 -0.625,1.937802 -0.625,3.003906 0,1.063949 0.22281,2.077751 0.62305,2.998047 h 4.33789 a 1.0001006,1.0001006 0 0 0 1.0039,-0.998047 v -4 a 1.0001006,1.0001006 0 0 0 -1.0039,-1.003906 z"
         transform="matrix(0.26458334,0,0,0.26458334,0,280.06666)" />
      <path
         id="path348098"
         style="color:#000000;fill:#1f8b95;fill-opacity:1;stroke-width:0.794897;stroke-linecap:round;stroke-linejoin:round;stroke-miterlimit:1.5;-inkscape-stroke:none"
         d="m 102.88468,286.01979 c 0.58672,0 0.80792,0.28566 1.03358,0.82724 l 1.19522,2.69876 c 0.0593,0.14218 0.17108,0.25556 0.31265,0.31626 l 1.04644,0.44752 c 0.39169,0.16787 0.64631,0.55622 0.64631,0.98237 v 1.34295 c -5.8e-4,0.14612 -0.11933,0.26411 -0.26545,0.26355 h 0.52917 c 0.14612,5.5e-4 0.26503,-0.11743 0.26561,-0.26355 v -1.85157 c 0,-0.42615 -0.25478,-0.8145 -0.64647,-0.98237 l -1.04645,-0.44752 c -0.14157,-0.0607 -0.25339,-0.17408 -0.31264,-0.31626 l -0.8847,-2.12132 c -0.22566,-0.54158 -0.75739,-0.89606 -1.3441,-0.89606 z"
         sodipodi:nodetypes="cccccsccccsccccsc" />
      <path
         id="path326651"
         style="color:#000000;fill:#aabfd0;fill-opacity:1;stroke-width:0.794897;stroke-linecap:round;stroke-linejoin:round;stroke-miterlimit:1.5;-inkscape-stroke:none"
         d="m 104.62721,292.36927 a 0.26460996,0.26460996 0 0 0 -0.26407,0.26562 v 1.05833 a 0.26460996,0.26460996 0 0 0 0.26407,0.26407 h 0.2651 v -0.79324 a 0.26460996,0.26460996 0 0 1 0.26407,-0.26561 h 3.02152 v -0.26355 a 0.26460996,0.26460996 0 0 0 -0.26562,-0.26562 z" />
      <path
         style="color:#000000;fill:#3a4d5c;stroke-width:0.794897;stroke-linecap:round;stroke-linejoin:round;stroke-miterlimit:1.5;-inkscape-stroke:none"
         d="m 103.94336,291.57617 c -0.8736,0 -1.58594,0.7143 -1.58594,1.58789 0,0.8736 0.71234,1.58789 1.58594,1.58789 0.8736,0 1.58789,-0.71429 1.58789,-1.58789 0,-0.87359 -0.71429,-1.58789 -1.58789,-1.58789 z"
         id="path281480" />
      <path
         style="color:#000000;fill:#0f2437;fill-opacity:1;stroke-width:0.794897;stroke-linecap:round;stroke-linejoin:round;stroke-miterlimit:1.5;-inkscape-stroke:none"
         d="m 95.477297,292.89845 a 0.2645835,0.2645835 0 0 0 -0.263672,0.26563 0.2645835,0.2645835 0 0 0 0.263672,0.26367 0.2645835,0.2645835 0 0 0 0.263672,-0.26367 0.2645835,0.2645835 0 0 0 -0.263672,-0.26563 z"
         id="path57110" />
      <path
         style="color:#000000;fill:#0f2437;fill-opacity:1;stroke-width:0.794897;stroke-linecap:round;stroke-linejoin:round;stroke-miterlimit:1.5;-inkscape-stroke:none"
         d="m 103.944,292.89891 a 0.2645835,0.2645835 0 0 0 -0.26367,0.26563 0.2645835,0.2645835 0 0 0 0.26367,0.26367 0.2645835,0.2645835 0 0 0 0.26367,-0.26367 0.2645835,0.2645835 0 0 0 -0.26367,-0.26563 z"
         id="path57409" />
      <path
         style="color:#000000;fill:#fed883;stroke-width:0.794897;stroke-linecap:round;stroke-linejoin:round;stroke-miterlimit:1.5;-inkscape-stroke:none"
         d="m 98.916016,284.96094 a 0.2645835,0.2645835 0 0 0 -0.263672,0.26562 0.2645835,0.2645835 0 0 0 0.263672,0.26367 h 0.529296 a 0.2645835,0.2645835 0 0 0 0.265625,-0.26367 0.2645835,0.2645835 0 0 0 -0.265625,-0.26562 z"
         id="path58722" />
      <path
         style="color:#000000;fill:#fed883;stroke-width:0.794897;stroke-linecap:round;stroke-linejoin:round;stroke-miterlimit:1.5;-inkscape-stroke:none"
         d="m 101.29883,284.96094 a 0.2645835,0.2645835 0 0 0 -0.26563,0.26562 0.2645835,0.2645835 0 0 0 0.26563,0.26367 h 0.5293 a 0.2645835,0.2645835 0 0 0 0.26367,-0.26367 0.2645835,0.2645835 0 0 0 -0.26367,-0.26562 z"
         id="path58806" />
      <path
         style="color:#000000;fill:#3a4d5c;stroke-width:0.794897;stroke-linecap:round;stroke-linejoin:round;stroke-miterlimit:1.5;-inkscape-stroke:none"
         d="m 96.271484,286.01953 a 0.2645835,0.2645835 0 0 0 -0.265625,0.26563 0.2645835,0.2645835 0 0 0 0.265625,0.26367 h 8.201176 a 0.2645835,0.2645835 0 0 0 0.26562,-0.26367 0.2645835,0.2645835 0 0 0 -0.26562,-0.26563 z"
         id="path56171" />
      <path
         id="path290443"
         style="color:#000000;fill:#0f2437;fill-opacity:1;stroke-width:0.794897;stroke-linecap:round;stroke-linejoin:round;stroke-miterlimit:1.5;-inkscape-stroke:none"
         d="m 95.476346,291.57604 c -0.571307,0 -1.073129,0.30596 -1.352373,0.76171 0.240284,-0.1471 0.521988,-0.23255 0.823206,-0.23255 0.873598,0 1.588016,0.71443 1.588016,1.58802 0,0.30202 -0.08524,0.58478 -0.233061,0.82579 0.456422,-0.27967 0.762227,-0.78314 0.762227,-1.35496 0,-0.87359 -0.714417,-1.58801 -1.588015,-1.58801 z" />
      <path
         id="path292888"
         style="color:#000000;fill:#0f2437;fill-opacity:1;stroke-width:0.794897;stroke-linecap:round;stroke-linejoin:round;stroke-miterlimit:1.5;-inkscape-stroke:none"
         d="m 103.94324,291.57604 c -0.57131,0 -1.07313,0.30596 -1.35238,0.76171 0.24029,-0.1471 0.52199,-0.23255 0.82321,-0.23255 0.8736,0 1.58801,0.71443 1.58801,1.58802 0,0.30202 -0.0852,0.58478 -0.23306,0.82579 0.45642,-0.27967 0.76223,-0.78314 0.76223,-1.35496 0,-0.87359 -0.71442,-1.58801 -1.58801,-1.58801 z" />
      <path
         id="path328966"
         style="color:#000000;fill:#febe40;fill-opacity:1;stroke-width:0.794897;stroke-linecap:round;stroke-linejoin:round;stroke-miterlimit:1.5;-inkscape-stroke:none"
         d="m 93.883159,289.54825 -1.138946,0.31109 c -0.294103,0.0802 -0.526241,0.29435 -0.636654,0.56534 0.03479,-0.0141 0.07063,-0.0261 0.107487,-0.0362 l 1.138947,-0.31109 0.104904,0.16278 a 0.26460996,0.26460996 0 0 1 0.01394,0.0253 c 0.100449,0.20148 0.152355,0.42341 0.152448,0.64854 0,0.26483 -0.0715,0.51371 -0.196371,0.72812 0.433022,-0.25265 0.725535,-0.7222 0.725537,-1.25729 -9.2e-5,-0.22513 -0.052,-0.44706 -0.152447,-0.64854 a 0.26460996,0.26460996 0 0 0 -0.01394,-0.0253 z" />
      <path
         id="path340091"
         style="color:#000000;fill:#b31e48;fill-opacity:1;stroke-width:0.794897;stroke-linecap:round;stroke-linejoin:round;stroke-miterlimit:1.5;-inkscape-stroke:none"
         d="m 106.31031,289.50536 -0.0935,0.23099 c -0.0672,0.13476 -0.11263,0.27847 -0.1354,0.42633 l 0.39119,0.16744 c 0.39169,0.16787 0.64648,0.55622 0.64648,0.98237 v 0.50694 c 0.0838,0.0132 0.17176,0.0202 0.26355,0.0202 h 0.26561 v -1.05626 c 0,-0.42615 -0.25478,-0.8145 -0.64647,-0.98237 z" />
    </g>
  </g>
</svg>
