<svg width="300" height="300" viewBox="0 0 300 300" fill="none" xmlns="http://www.w3.org/2000/svg">
<path fill-rule="evenodd" clip-rule="evenodd" d="M72.835 89.9219C61.279 87.8629 54.186 84.2459 47.02 77.2999C39.854 70.3539 33.028 53.3209 37.863 36.0509C42.698 18.7809 52.539 8.53194 66.335 5.60794C80.131 2.68394 91.706 10.9619 95.96 16.2569C100.396 22.0068 103.82 28.4707 106.084 35.3709C108.693 42.7979 117.551 42.1879 124.443 42.2929C131.335 42.3979 143.603 42.8469 155.198 50.1829C166.793 57.5189 173.276 65.1449 174.722 74.6929C176.168 84.2409 170.974 93.9929 166.29 99.5929C161.606 105.193 152.465 115.081 146.263 117.765C140.061 120.449 128.327 125.243 118.734 127.085C109.141 128.927 84.2 91.9479 72.835 89.9219Z" fill="#00092F"/>
<path fill-rule="evenodd" clip-rule="evenodd" d="M47 45.159C48.554 51.445 53 57.523 53 57.523C54.1646 59.2689 55.0057 61.2102 55.483 63.254C56.0156 65.3117 56.3752 67.4103 56.558 69.528L60.593 67.557C60.593 67.557 63.601 69.882 69.467 70.232C72.9084 70.4604 76.3607 69.997 79.62 68.869L83.15 74.693L92.338 66.276L89.28 60.511C89.7377 57.2035 89.8463 53.8571 89.604 50.527C89.1355 46.9462 87.9858 43.4883 86.217 40.34C86.217 40.34 80.636 45.172 75.858 47C70.3976 48.958 64.5813 49.7249 58.8 49.249C54.5838 48.9068 50.5235 47.4995 47 45.159V45.159Z" fill="#E88D95"/>
<path fill-rule="evenodd" clip-rule="evenodd" d="M29.943 94.607C27.969 92.571 24.211 88.865 22.973 87.422C21.735 85.979 20.46 85.028 22.421 83.149C24.382 81.27 24.257 81.387 25.041 80.635C25.825 79.883 26.973 80.011 28.862 82.255C30.751 84.499 36.738 91.861 38.245 93.401L44.6 99.9L41.389 103.591C41.389 103.591 31.916 96.645 29.942 94.61L29.943 94.607Z" fill="#8B8B8B"/>
<path fill-rule="evenodd" clip-rule="evenodd" d="M43.5319 107.4C42.1019 106.354 40.9029 105.059 39.9719 104.795C39.0409 104.531 38.5649 105.254 37.4019 106.269C36.2389 107.284 35.3259 107.369 34.0439 106.202C32.3482 104.616 30.9069 102.777 29.7709 100.752C28.9754 99.3227 28.6837 97.6672 28.9429 96.052C29.1579 94.152 29.7259 92.402 31.9609 92.19C34.1959 91.978 34.9889 93.679 36.2389 95C37.0097 95.9585 37.3888 97.1733 37.2999 98.4C37.2999 98.4 40.0649 101.032 40.5999 101.522C41.1349 102.012 42.3829 101.153 43.1129 100.245C43.8429 99.337 42.4639 97.706 41.0419 96.255L38.2419 93.398C39.0796 93.034 40.0111 92.9456 40.9023 93.1455C41.7934 93.3453 42.598 93.8232 43.1999 94.51C44.0856 95.3682 44.6953 96.4711 44.9509 97.6776C45.2065 98.8841 45.0965 100.139 44.6349 101.283C44.0349 102.945 44.4789 103.622 45.7349 104.543C46.9909 105.464 44.9599 108.449 43.5299 107.402L43.5319 107.4Z" fill="#E88D95"/>
<path fill-rule="evenodd" clip-rule="evenodd" d="M76.576 82.459C73.649 86.002 71.83 90.829 70.276 95.689C68.9788 100.15 67.9184 104.677 67.099 109.25C66.492 112.161 65.229 112.072 62.924 111.205C60.619 110.338 57.792 109.728 54.533 108.047C51.9197 106.676 49.4029 105.128 47 103.414C46.135 102.754 45.558 103.275 44.743 104.301C43.928 105.327 42.354 107.314 41.774 108.047C41.6235 108.238 41.5145 108.459 41.4538 108.694C41.3932 108.93 41.3822 109.175 41.4216 109.415C41.461 109.655 41.5499 109.885 41.6827 110.088C41.8155 110.292 41.9893 110.466 42.193 110.599C43.146 111.336 53.802 118.866 56.962 121.149C60.122 123.432 66.578 126.949 68.126 128.241C69.674 129.533 72.626 128.696 75.192 126.471L79.492 122.744C79.492 122.744 79.509 78.916 76.583 82.459H76.576Z" fill="#37A4B9"/>
<path fill-rule="evenodd" clip-rule="evenodd" d="M79.621 68.8689C81.747 67.5799 84.389 65.7549 85.482 63.7469C85.4209 67.4776 84.6005 71.1567 83.071 74.5599L79.621 68.8689Z" fill="#DA6771"/>
<path fill-rule="evenodd" clip-rule="evenodd" d="M148.848 131.873C149.532 132.917 150.82 134.89 150.82 134.89C150.82 134.89 151.59 134.429 152.238 133.977C152.886 133.525 153.455 133.645 154.43 134.692L158.979 139.585C159.4 140.038 159.912 140.509 158.82 142.108C158.202 143.038 157.394 143.827 156.448 144.421C156.448 144.421 153.948 140.78 152.648 141.385C151.432 142.201 150.352 143.202 149.448 144.354C149.448 144.354 148.229 146.606 146.858 144.947C145.487 143.288 143.585 139.547 145.623 138.79C147.661 138.033 147.511 137.373 147.511 137.373L144.859 134.327C144.859 134.327 148.159 130.827 148.846 131.873H148.848Z" fill="#E88D95"/>
<path fill-rule="evenodd" clip-rule="evenodd" d="M54.439 278.843C52.123 280.86 49.186 283.83 47.269 285.089C45.352 286.348 44.716 287.555 46.13 288.033C47.544 288.511 53.041 287.903 55.2 287.109C57.359 286.315 57.261 288.257 58.85 288.478C60.439 288.699 61.05 286.805 61.37 284.539C61.69 282.273 59.89 278.852 59.89 278.852C59.89 278.852 56.755 276.826 54.439 278.843Z" fill="#332727"/>
<path fill-rule="evenodd" clip-rule="evenodd" d="M127.62 258.6C127.744 260.966 128.23 267.031 128.19 269.521C128.15 272.011 129.825 271.586 130.651 270.102C131.477 268.618 135.599 262.277 135.635 262.214C136.502 262.476 137.436 262.396 138.246 261.99C139.067 261.501 138.455 259.799 137.174 258.454C135.635 257.191 133.953 256.113 132.163 255.242C132.163 255.242 127.497 256.236 127.62 258.6V258.6Z" fill="#332727"/>
<path fill-rule="evenodd" clip-rule="evenodd" d="M115.612 162.964C114.701 168.511 113.188 178.021 111.975 185.084C110.762 192.147 109.645 198.635 109.645 198.635C109.645 198.635 112.016 204.059 115.424 212.476C118.832 220.893 119.924 226.721 123.084 234.701C126.244 242.681 133.406 254.238 133.406 254.238L126.297 259.991C126.297 259.991 123.982 257.485 120.916 253.828L98.935 227.609C90.135 217.109 84.735 209.309 80.247 205.32C75.759 201.331 116.524 157.42 115.612 162.964Z" fill="#655742"/>
<path fill-rule="evenodd" clip-rule="evenodd" d="M80.487 131.7C79.234 136.187 74.4381 148.45 70.9661 156.889C67.4941 165.328 59.3001 180.856 57.0081 185.755C54.7161 190.654 54.3991 191.792 54.2791 196.239C54.1591 200.686 52.8621 210.008 52.4191 216.321C51.9761 222.634 51.6721 237.933 51.5341 245.458C51.3961 252.983 51.0411 272.458 50.9981 274.823C50.9551 277.188 50.2421 278.91 52.9661 279.148L63.3341 280.048C63.3341 280.048 64.915 274.014 66.018 268.641C67.121 263.268 71.056 251.507 73.409 241.567C75.762 231.627 82.549 207.232 83.478 203.727C84.407 200.222 85.223 198.927 88.07 195.956C90.917 192.985 113.246 168.022 117.47 162.477C121.694 156.932 125.483 148.991 125.656 143.182C125.662 136.703 124.153 130.312 121.25 124.519C119.662 121.557 117.538 118.917 114.984 116.733C114.984 116.733 81.74 127.211 80.487 131.7Z" fill="#514938"/>
<path fill-rule="evenodd" clip-rule="evenodd" d="M78.007 129.36C78.1 126.049 77.961 114.217 77.576 110.936C77.191 107.655 76.676 103.289 76.029 97.731C75.382 92.173 76.138 87.231 76.094 85.174C76.0045 84.1164 76.1608 83.0524 76.5506 82.0652C76.9404 81.0779 77.5531 80.1942 78.341 79.483C83.7536 73.6596 89.4907 68.1465 95.525 62.97C103.08 56.651 109.439 53.934 113.097 54.011C116.755 54.088 117.691 55.658 117.917 57.517C118.143 59.376 115.486 61.865 115.486 61.865C115.486 61.865 118.346 62.465 118.166 66.075C117.986 69.685 114.231 74.693 114.231 74.693C114.231 74.693 125.04 86.852 130.542 96.2L148.757 127.148C149.757 128.848 150.31 130.509 148.089 132.393L144.325 135.583C143.372 136.392 142.819 135.353 141.307 134.061C139.795 132.769 129.242 120.251 126.725 117.793L121.73 112.916C121.73 112.916 120.677 113.598 117.294 115.47C113.911 117.342 103.828 122.884 95.672 125.87C87.516 128.856 83.942 130.722 81.714 131.679C79.486 132.636 77.934 131.979 78.007 129.361V129.36Z" fill="#78E8FD"/>
<path fill-rule="evenodd" clip-rule="evenodd" d="M232.391 281.816C233.517 283.54 237.072 289.916 237.072 289.916C237.072 289.916 244.672 286.99 245.2 286.144C245.728 285.298 244.843 276.224 244.843 276.224C244.843 276.224 231.264 280.093 232.391 281.817V281.816Z" fill="#8B8B8B"/>
<path fill-rule="evenodd" clip-rule="evenodd" d="M172.806 184.113C170.806 180.783 165.155 171.013 160.306 163.264C155.457 155.515 151.791 148.364 149.631 145.556C147.471 142.748 148.07 141.543 149.631 140.716C151.192 139.889 151.571 139.08 154.009 141.75C156.447 144.42 157.201 146.139 159.473 150.083L172.6 172.866L177.415 181.226" fill="#8B8B8B"/>
<path fill-rule="evenodd" clip-rule="evenodd" d="M232.431 282.01C229.256 277.271 221.849 262.957 214.457 251.576C207.065 240.195 189.019 212.419 184.464 205.407C179.909 198.395 172.7 184.2 172.6 184.192C172.5 184.184 185.037 176.721 191.348 172.26C197.659 167.799 209.955 161.546 212.655 159.66C214.524 158.449 216.67 157.733 218.892 157.581C221.114 157.429 223.338 157.845 225.355 158.79C229.95 161.144 232.555 165.278 236.916 172.024L256.791 202.767C263.969 213.873 269.88 225.422 273.725 232.213C277.57 239.004 279.056 241.813 278.471 247.187C277.886 252.561 275.293 256.521 272.705 258.257C270.117 259.993 263.23 263.591 253.553 270.078C243.876 276.565 234.341 284.855 232.433 282.011L232.431 282.01Z" fill="#00092F"/>
<path fill-rule="evenodd" clip-rule="evenodd" d="M242.667 281.99C242.667 281.99 239.488 282.371 238.936 282.925C237.534 284.174 236.664 285.913 236.506 287.784C236.048 291.732 239.523 294.784 243.196 294.991C244.595 295.069 245.98 294.668 247.12 293.853C248.261 293.039 249.089 291.859 249.469 290.51C249.708 289.316 249.646 288.08 249.288 286.916C248.93 285.752 248.287 284.695 247.417 283.842C246.141 282.621 244.433 281.956 242.667 281.99V281.99Z" fill="#332727"/>
<path fill-rule="evenodd" clip-rule="evenodd" d="M58.6 53.987C58.6 53.987 57.9611 54.307 57.9171 54.421C57.7356 54.8259 57.6802 55.2761 57.7581 55.713C58.0166 56.8359 58.6397 57.8415 59.53 58.573C59.7282 58.7878 59.9836 58.9415 60.2661 59.0161C60.5487 59.0907 60.8467 59.083 61.1251 58.994C61.4164 58.8316 61.6546 58.5886 61.8112 58.2941C61.9679 57.9997 62.0362 57.6663 62.0081 57.334C61.7809 56.5696 61.4244 55.8498 60.954 55.206C60.371 54.278 59.715 53.429 58.6 53.987Z" fill="#332727"/>
<path d="M70.644 64.9C71.0669 64.4521 71.3959 63.924 71.6116 63.347C71.8273 62.7699 71.9254 62.1555 71.9 61.54C71.9279 60.4818 71.614 59.4428 71.005 58.577" stroke="#1A1A1A" stroke-width="1.587" stroke-linecap="round" stroke-linejoin="round"/>
<path d="M213.9 161.418C215.857 165.005 223.188 175.735 223.188 175.735C223.188 175.735 223.473 176.261 225.594 180.187C229.529 187.772 233.956 195.092 238.846 202.1C245.366 211.234 251.246 222.118 256.779 231.366C262.312 240.614 269.307 252.307 271.063 255.241" stroke="#5368BD" stroke-width="1.625" stroke-linecap="round" stroke-linejoin="round"/>
<path d="M227.577 183.56C230.528 181.905 234.8 179.621 236.677 178.46M230.73 188.626C232.457 187.417 236.165 184.519 238.847 182.946" stroke="#5368BD" stroke-width="1.625" stroke-linecap="round" stroke-linejoin="round"/>
<path fill-rule="evenodd" clip-rule="evenodd" d="M121.839 112.891C116.039 107.046 101.692 91.2679 101.692 91.2679L114.984 116.737C114.984 116.737 118.084 115.031 121.839 112.891V112.891Z" fill="#37A4B9"/>
</svg>
