<svg width="3" height="6" viewBox="0 0 3 6" fill="none" xmlns="http://www.w3.org/2000/svg">
<path d="M1.345 5.575V5.025C1.12167 5.01167 0.911667 4.97167 0.715 4.905C0.518333 4.835 0.346667 4.73833 0.2 4.615L0.37 4.205C0.53 4.33167 0.7 4.42667 0.88 4.49C1.06333 4.55333 1.27 4.585 1.5 4.585C1.76333 4.585 1.95833 4.535 2.085 4.435C2.215 4.335 2.28 4.20667 2.28 4.05C2.28 3.91667 2.235 3.81167 2.145 3.735C2.055 3.655 1.90333 3.59167 1.69 3.545L1.175 3.435C0.875 3.36833 0.65 3.26 0.5 3.11C0.35 2.95667 0.275 2.75333 0.275 2.5C0.275 2.31 0.318333 2.14167 0.405 1.995C0.495 1.84833 0.62 1.72833 0.78 1.635C0.94 1.54167 1.12833 1.48333 1.345 1.46V0.9H1.755V1.46C1.92833 1.47667 2.09667 1.52 2.26 1.59C2.42667 1.65667 2.57 1.75 2.69 1.87L2.525 2.265C2.395 2.13833 2.24833 2.045 2.085 1.985C1.92167 1.92167 1.74167 1.89 1.545 1.89C1.315 1.89 1.13 1.945 0.99 2.055C0.853333 2.165 0.785 2.30833 0.785 2.485C0.785 2.62167 0.828333 2.73 0.915 2.81C1.00167 2.89 1.14 2.95167 1.33 2.995L1.845 3.105C2.165 3.17167 2.40333 3.28 2.56 3.43C2.71667 3.57667 2.795 3.77167 2.795 4.015C2.795 4.29167 2.69833 4.51833 2.505 4.695C2.31167 4.86833 2.06167 4.97333 1.755 5.01V5.575H1.345Z" fill="black"/>
</svg>
