<svg width="22.577778" height="22.577778" xmlns="http://www.w3.org/2000/svg" xmlns:undefined="http://www.inkscape.org/namespaces/inkscape" xmlns:undefined="http://sodipodi.sourceforge.net/DTD/sodipodi-0.dtd" version="1.1">
 <defs id="defs825">
  <pattern y="0" x="0" height="6" width="6" patternUnits="userSpaceOnUse" id="EMFhbasepattern"/>
  <pattern y="0" x="0" height="6" width="6" patternUnits="userSpaceOnUse" id="EMFhbasepattern-9"/>
  <pattern y="0" x="0" height="6" width="6" patternUnits="userSpaceOnUse" id="EMFhbasepattern-0"/>
  <pattern y="0" x="0" height="6" width="6" patternUnits="userSpaceOnUse" id="EMFhbasepattern-7"/>
  <pattern y="0" x="0" height="6" width="6" patternUnits="userSpaceOnUse" id="EMFhbasepattern-2"/>
  <pattern y="0" x="0" height="6" width="6" patternUnits="userSpaceOnUse" id="EMFhbasepattern-98"/>
  <pattern y="0" x="0" height="6" width="6" patternUnits="userSpaceOnUse" id="EMFhbasepattern-6"/>
  <pattern y="0" x="0" height="6" width="6" patternUnits="userSpaceOnUse" id="EMFhbasepattern-01"/>
  <pattern y="0" x="0" height="6" width="6" patternUnits="userSpaceOnUse" id="EMFhbasepattern-07"/>
  <pattern y="0" x="0" height="6" width="6" patternUnits="userSpaceOnUse" id="EMFhbasepattern-8"/>
  <pattern y="0" x="0" height="6" width="6" patternUnits="userSpaceOnUse" id="EMFhbasepattern-4"/>
  <pattern y="0" x="0" height="6" width="6" patternUnits="userSpaceOnUse" id="EMFhbasepattern-40"/>
  <pattern y="0" x="0" height="6" width="6" patternUnits="userSpaceOnUse" id="EMFhbasepattern-08"/>
  <pattern y="0" x="0" height="6" width="6" patternUnits="userSpaceOnUse" id="EMFhbasepattern-04"/>
  <pattern y="0" x="0" height="6" width="6" patternUnits="userSpaceOnUse" id="EMFhbasepattern-014"/>
  <pattern y="0" x="0" height="6" width="6" patternUnits="userSpaceOnUse" id="EMFhbasepattern-27"/>
  <pattern y="0" x="0" height="6" width="6" patternUnits="userSpaceOnUse" id="EMFhbasepattern-09"/>
  <pattern y="0" x="0" height="6" width="6" patternUnits="userSpaceOnUse" id="EMFhbasepattern-5"/>
  <pattern y="0" x="0" height="6" width="6" patternUnits="userSpaceOnUse" id="EMFhbasepattern-018"/>
 </defs>
 <metadata id="metadata828">image/svg+xml</metadata>
 <g>
  <title>Layer 1</title>
  <g id="layer1"  >
   <path stroke-dashoffset="0" stroke-miterlimit="1.5" stroke-linejoin="round" stroke-linecap="round" stroke-width="0.52917" fill-rule="nonzero" fill="#5d6d7c" clip-rule="nonzero"  d="m15.47244,0.97011c-0.36372,0 -0.66313,0.30201 -0.66313,0.66573l-0.52595,0c-0.54757,0 -0.99794,0.45037 -0.99794,0.99793l0,2.3294l0.66638,0l0,-2.3294c0,-0.18777 0.14378,-0.33221 0.33156,-0.33221l0.52595,0c0,0.36372 0.29941,0.66638 0.66313,0.66638l1.99783,0c0.36371,0 0.66572,-0.30266 0.66572,-0.66638l0.47459,0c0.18778,0 0.33417,0.14444 0.33417,0.33221l0,2.3294l0.66572,0l0,-2.3294c0,-0.54756 -0.45232,-0.99793 -0.99989,-0.99793l-0.47459,0c0,-0.36372 -0.30201,-0.66572 -0.66572,-0.66573l-1.99783,0zm-3.18691,4.66138c-0.73137,0 -1.3295,0.60007 -1.3295,1.33145l0,3.4476l3.08418,0l0,-2.11809c0.00067,-0.18282 0.14875,-0.33086 0.33157,-0.33156c0.18383,-0.00074 0.33344,0.14772 0.33416,0.33156l0,2.1233c0.92886,0.0525 1.75381,0.90249 1.75468,1.83724l0,7.45302l0.92123,0l0,-11.41356c0.00067,-0.18282 0.14874,-0.33086 0.33156,-0.33156c0.18384,-0.00074 0.33345,0.14772 0.33417,0.33156l0,11.41356l3.31497,0c0.15219,-0.21665 0.24315,-0.47893 0.24315,-0.76195l0,-11.98112c0,-0.73138 -0.59813,-1.33145 -1.3295,-1.33145l-7.99067,0zm-5.2582,3.85978c-0.14318,0.00067 -0.2699,0.0928 -0.31465,0.22885l-0.18204,0.54285l3.85718,0l-0.18073,-0.54285c-0.04506,-0.13693 -0.17312,-0.2293 -0.31726,-0.22885l-2.8625,0zm-4.72769,1.43288c-0.73137,0 -1.3295,0.59747 -1.3295,1.32884l0,8.02317c0,0.73137 0.59813,1.33146 1.3295,1.33146l0.57731,0l0,-3.33903l-0.14238,0c-0.18484,0.0007 -0.33487,-0.14932 -0.33416,-0.33416l0,-2.8625c0.00033,-0.18408 0.15008,-0.33291 0.33416,-0.33221l0.14238,0l0,-3.81557l-0.57731,0zm1.24369,0l0,3.81557l1.24303,0l0,-3.81557l-1.24303,0zm1.90876,0l0,3.81557l0.14497,0c0.18332,0.00037 0.33184,0.14889 0.33222,0.33221l0,2.8625c0.00066,0.18408 -0.14814,0.33377 -0.33222,0.33416l-0.14497,0l0,3.33903l6.01298,0l0,-3.33903l-0.14237,0c-0.18485,0.0007 -0.33487,-0.14932 -0.33417,-0.33416l0,-2.8625c0.00034,-0.18408 0.15009,-0.33291 0.33417,-0.33221l0.14237,0l0,-3.81557l-6.01298,0zm6.67871,0l0,3.81557l1.24369,0l0,-3.81557l-1.24369,0zm1.90941,0l0,3.81557l0.14498,0c0.18307,0.00073 0.33119,0.14914 0.33156,0.33221l0,2.8625c0.00067,0.18383 -0.14773,0.33342 -0.33156,0.33416l-0.14498,0l0,3.33903l0.57731,0c0.73138,0 1.33145,-0.60009 1.33146,-1.33146l0,-8.02317c-0.00001,-0.73137 -0.60008,-1.32884 -1.33146,-1.32884l-0.57731,0zm-6.66831,2.13436c0.02816,0.00079 0.05614,0.005 0.08322,0.0129l1.28724,0.34392c0.17706,0.0484 0.28148,0.23111 0.2334,0.40828l-0.34392,1.28464c-0.04732,0.17779 -0.22988,0.28349 -0.40763,0.236l-1.28529,-0.34383c-0.17779,-0.04731 -0.28349,-0.22989 -0.236,-0.40763l0.34392,-1.28529c0.03606,-0.13865 0.15678,-0.23868 0.29971,-0.24835c0.00845,-0.00053 0.01691,-0.00077 0.02536,-0.00067l-0.00001,0.00003zm0.23275,0.74048l-0.17164,0.64363l0.64102,0.17228l0.17424,-0.64168l-0.64362,-0.17423zm-4.53852,1.6071l0,2.19612c0.73226,0 1.46451,0 2.19677,0l0,-2.19612l-2.19677,0zm8.58813,0l0,2.19612c0.7234,-0.004 1.49366,0 2.19677,0l0,-2.19612l-2.19677,0zm-2.96065,1.45955l1.35096,1.18647c0.20123,0.17511 0.12509,0.50393 -0.13263,0.57276l-1.93152,0.51555c-0.25576,0.0672 -0.48402,-0.17623 -0.40047,-0.42714l0.57796,-1.70527c0.04464,-0.13301 0.16789,-0.22376 0.24268,-0.22542c0.11377,-0.0267 0.20632,0.0191 0.29302,0.083l0,0.00005zm-0.06697,0.82759l-0.21584,0.64427l0.72749,-0.19439l-0.51165,-0.44988zm-5.08331,0.57536l0,3.33903l1.24303,0l0,-3.33903l-1.24303,0zm8.58747,0l0,3.33903l1.24369,0l0,-3.33903l-1.24369,0zm5.32451,2.10315l0.52595,1.05189c0.0563,0.1126 0.17126,0.18376 0.29711,0.18399l0.99794,0c0.12585,-0.00023 0.24081,-0.0714 0.2971,-0.18399l0.52595,-1.05189l-2.64405,0z" id="path1349"/>
  </g>
 </g>
</svg>